<svg width="175" height="60" viewBox="0 0 175 60" fill="none" xmlns="http://www.w3.org/2000/svg">
<rect width="175" height="60" rx="15" fill="#287233"/>
<path d="M109.725 26.0169C109.905 27.1525 110 28.3148 110 29.5004C110 37.5901 106.586 44.6829 100.043 48.648C96.5361 50.774 92.4005 52 87.9727 52C75.2853 52.0008 65 41.927 65 29.5004C65 17.0738 75.2853 7 87.9727 7C93.8038 7 99.1235 9.13172 103.175 12.6378L97.1125 18.8837C94.6437 16.8424 91.4568 15.6067 87.9727 15.6067C80.1389 15.6067 73.7882 21.8269 73.7882 29.4996C73.7882 37.1723 80.1389 43.3925 87.9727 43.3925C92.3791 43.3925 96.3162 41.4245 98.9176 38.337C99.8473 37.2336 100.378 36.0553 100.402 34.6333H87.9883V26.029L109.725 26.0169Z" fill="#F2F6EE"/>
</svg>
