<svg width="175" height="60" viewBox="0 0 175 60" fill="none" xmlns="http://www.w3.org/2000/svg">
<rect width="175" height="60" rx="15" fill="#287233"/>
<path fill-rule="evenodd" clip-rule="evenodd" d="M116.624 17.0312C117.041 15.8604 116.624 15 114.639 15H108.075C106.406 15 105.636 15.7431 105.22 16.5631C105.22 16.5631 101.881 23.4129 97.1522 27.8627C95.6228 29.1508 94.9275 29.5611 94.0921 29.5611C93.6755 29.5611 93.0715 29.1508 93.0715 27.9805V17.0312C93.0715 15.6264 92.5868 15 91.1961 15H80.8801C79.8374 15 79.2094 15.6522 79.2094 16.2707C79.2094 17.6026 81.5741 17.9102 81.8181 21.6573V29.7951C81.8181 31.5794 81.4354 31.9038 80.6008 31.9038C78.3761 31.9038 72.9627 25.0226 69.752 17.1491C69.1227 15.6185 68.492 15.0006 66.8147 15.0006H60.2507C58.3747 15 58 15.7431 58 16.5626C58 18.0264 60.2247 25.2864 68.3614 34.8881C73.7854 41.4449 81.4274 45 88.3821 45C92.5541 45 93.0708 44.2103 93.0708 42.8503V37.8949C93.0708 36.3154 93.4661 36.0006 94.7875 36.0006C95.7608 36.0006 97.4295 36.4097 101.324 39.5714C105.775 43.3184 106.508 44.9994 109.012 44.9994H115.576C117.451 44.9994 118.389 44.2097 117.848 42.6522C117.256 41.0992 115.131 38.8462 112.312 36.1762C110.782 34.6541 108.486 33.0146 107.791 32.1946C106.817 31.1411 107.096 30.673 107.791 29.7356C107.791 29.7356 115.79 20.2513 116.624 17.0312Z" fill="#F2F6EE"/>
</svg>
